<svg width="33" height="33" viewBox="0 0 33 33" fill="none" xmlns="http://www.w3.org/2000/svg">
<path d="M5.7787 26.9377C2.95062 24.1096 1.36182 20.2739 1.36182 16.2744C1.36182 12.2749 2.95062 8.4392 5.7787 5.61112C8.60678 2.78304 12.4425 1.19424 16.442 1.19424C20.4415 1.19424 24.2772 2.78304 27.1053 5.61112C29.9334 8.4392 31.5222 12.2749 31.5222 16.2744C31.5222 20.2739 29.9334 24.1096 27.1053 26.9377C24.2772 29.7658 20.4415 31.3546 16.442 31.3546C12.4425 31.3546 8.60678 29.7658 5.7787 26.9377Z" fill="#45F2BE" stroke="black" stroke-width="0.5"/>
<path d="M0.63485 24.3311C0.63485 25.6806 1.17097 26.9749 2.12526 27.9292C3.07955 28.8835 4.37385 29.4196 5.72343 29.4196C7.073 29.4196 8.3673 28.8835 9.32159 27.9292C10.2759 26.9749 10.812 25.6806 10.812 24.3311C10.812 22.9815 10.2759 21.6872 9.32159 20.7329C8.3673 19.7786 7.073 19.2425 5.72343 19.2425C4.37385 19.2425 3.07955 19.7786 2.12526 20.7329C1.17097 21.6872 0.63485 22.9815 0.63485 24.3311V24.3311Z" fill="#CB9DE8"/>
<path d="M5.72343 29.7419C2.73924 29.7419 0.312584 27.3152 0.312584 24.3311C0.312584 21.3469 2.73924 18.9234 5.72343 18.9234C8.70761 18.9234 11.1343 21.3501 11.1343 24.3311C11.1343 27.312 8.70761 29.7419 5.72343 29.7419ZM5.72343 19.568C3.09374 19.568 0.957115 21.7046 0.957115 24.3311C0.957115 26.9575 3.09374 29.0974 5.72343 29.0974C8.35311 29.0974 10.4897 26.9608 10.4897 24.3311C10.4897 21.7014 8.34989 19.568 5.72343 19.568Z" fill="black"/>
<path d="M22.0752 24.3311C22.0752 25.6806 22.6113 26.9749 23.5656 27.9292C24.5199 28.8835 25.8142 29.4196 27.1638 29.4196C28.5133 29.4196 29.8076 28.8835 30.7619 27.9292C31.7162 26.9749 32.2523 25.6806 32.2523 24.3311C32.2523 22.9815 31.7162 21.6872 30.7619 20.7329C29.8076 19.7786 28.5133 19.2425 27.1638 19.2425C25.8142 19.2425 24.5199 19.7786 23.5656 20.7329C22.6113 21.6872 22.0752 22.9815 22.0752 24.3311V24.3311Z" fill="#CB9DE8"/>
<path d="M27.1638 29.7419C24.1796 29.7419 21.7529 27.3152 21.7529 24.3311C21.7529 21.3469 24.1796 18.9202 27.1638 18.9202C30.148 18.9202 32.5746 21.3469 32.5746 24.3311C32.5746 27.3152 30.148 29.7419 27.1638 29.7419ZM27.1638 19.568C24.5341 19.568 22.3975 21.7046 22.3975 24.3311C22.3975 26.9575 24.5341 29.0974 27.1638 29.0974C29.7935 29.0974 31.9301 26.9607 31.9301 24.3311C31.9301 21.7014 29.7902 19.568 27.1638 19.568ZM5.72345 24.6533C5.68478 24.6533 5.64611 24.6469 5.60744 24.6308C5.44308 24.5663 5.35929 24.3794 5.42375 24.215L11.55 8.43369C11.5984 8.31123 11.7176 8.22744 11.8497 8.22744H15.1046C15.2818 8.22744 15.4269 8.37246 15.4269 8.54971C15.4269 8.72695 15.2818 8.87197 15.1046 8.87197H12.0689L6.02316 24.4503C5.97482 24.576 5.85236 24.6533 5.72345 24.6533Z" fill="black"/>
<path d="M19.4455 25.5138C19.3714 25.5138 19.3005 25.488 19.2425 25.4397L8.58195 16.6901C8.4756 16.6031 8.43693 16.4613 8.48205 16.3324C8.52717 16.2035 8.64963 16.1197 8.78498 16.1197H21.2534C21.3565 16.1197 21.45 16.1681 21.5112 16.2486L27.4216 24.1377C27.4893 24.2312 27.5054 24.3536 27.4603 24.46C27.4151 24.5663 27.3152 24.6404 27.1992 24.6533L19.481 25.5138H19.4455ZM9.68732 16.7643L19.5454 24.8564L26.5676 24.0732L21.0923 16.7643H9.68732ZM25.2334 12.8552H18.7236C18.5464 12.8552 18.4014 12.7102 18.4014 12.5329C18.4014 12.3557 18.5464 12.2107 18.7236 12.2107H25.2334C25.4106 12.2107 25.5557 12.3557 25.5557 12.5329C25.5557 12.7102 25.4106 12.8552 25.2334 12.8552Z" fill="black"/>
<path d="M19.4455 25.5138C19.423 25.5138 19.4004 25.5105 19.3811 25.5073C19.207 25.4719 19.0942 25.3011 19.1297 25.127L21.7594 12.4652C21.7948 12.2912 21.9656 12.1784 22.1397 12.2139C22.3137 12.2493 22.4265 12.4201 22.391 12.5941L19.7613 25.256C19.7291 25.4106 19.597 25.5138 19.4455 25.5138Z" fill="black"/>
</svg>
