<svg width="23" height="23" viewBox="0 0 23 23" fill="none" xmlns="http://www.w3.org/2000/svg">
<path d="M4.08115 18.7212C2.12427 16.7643 1.0249 14.1102 1.0249 11.3428C1.0249 8.57533 2.12427 5.92123 4.08115 3.96435C6.03803 2.00747 8.69212 0.908104 11.4596 0.908104C14.227 0.908104 16.8811 2.00747 18.838 3.96435C20.7949 5.92123 21.8942 8.57533 21.8942 11.3428C21.8942 14.1102 20.7949 16.7643 18.838 18.7212C16.8811 20.6781 14.227 21.7774 11.4596 21.7774C8.69212 21.7774 6.03803 20.6781 4.08115 18.7212Z" fill="#4191DB" stroke="black" stroke-width="0.5"/>
<path d="M3.79501 13.8575C3.79501 14.5133 4.0555 15.1421 4.51919 15.6058C4.98287 16.0695 5.61176 16.33 6.26751 16.33C6.92326 16.33 7.55215 16.0695 8.01583 15.6058C8.47951 15.1421 8.74001 14.5133 8.74001 13.8575C8.74001 13.2018 8.47951 12.5729 8.01583 12.1092C7.55215 11.6455 6.92326 11.385 6.26751 11.385C5.61176 11.385 4.98287 11.6455 4.51919 12.1092C4.0555 12.5729 3.79501 13.2018 3.79501 13.8575V13.8575Z" fill="#CB9DE8"/>
<path d="M6.26749 16.445C4.84044 16.445 3.67999 15.2842 3.67999 13.8567C3.67999 12.4293 4.84044 11.27 6.26749 11.27C7.69455 11.27 8.85499 12.4308 8.85499 13.8567C8.85499 15.2827 7.69455 16.445 6.26749 16.445ZM6.26749 11.5783C5.00996 11.5783 3.98821 12.6004 3.98821 13.8567C3.98821 15.1131 5.00996 16.1367 6.26749 16.1367C7.52503 16.1367 8.54677 15.1146 8.54677 13.8567C8.54677 12.5988 7.52349 11.5783 6.26749 11.5783Z" fill="black"/>
<path d="M14.26 13.8575C14.26 14.5133 14.5205 15.1421 14.9842 15.6058C15.4479 16.0695 16.0767 16.33 16.7325 16.33C17.3882 16.33 18.0171 16.0695 18.4808 15.6058C18.9445 15.1421 19.205 14.5133 19.205 13.8575C19.205 13.2018 18.9445 12.5729 18.4808 12.1092C18.0171 11.6455 17.3882 11.385 16.7325 11.385C16.0767 11.385 15.4479 11.6455 14.9842 12.1092C14.5205 12.5729 14.26 13.2018 14.26 13.8575V13.8575Z" fill="#CB9DE8"/>
<path d="M16.6865 16.445C15.2341 16.445 14.0531 15.2646 14.0531 13.8131C14.0531 12.3615 15.2341 11.1811 16.6865 11.1811C18.139 11.1811 19.32 12.3615 19.32 13.8131C19.32 15.2646 18.139 16.445 16.6865 16.445ZM16.6865 11.4962C15.4067 11.4962 14.3668 12.5355 14.3668 13.8131C14.3668 15.0906 15.4067 16.1315 16.6865 16.1315C17.9664 16.1315 19.0063 15.0922 19.0063 13.8131C19.0063 12.5339 17.9649 11.4962 16.6865 11.4962ZM6.25148 13.9698C6.23266 13.9698 6.21384 13.9667 6.19502 13.9589C6.11502 13.9275 6.07424 13.8366 6.10561 13.7566L9.08728 6.08032C9.11081 6.02075 9.16884 5.98 9.23315 5.98H10.8173C10.9036 5.98 10.9742 6.05054 10.9742 6.13675C10.9742 6.22297 10.9036 6.29351 10.8173 6.29351H9.33981L6.39735 13.8711C6.37382 13.9322 6.31422 13.9698 6.25148 13.9698Z" fill="black"/>
<path d="M13.0342 14.375C12.9975 14.375 12.9623 14.3623 12.9336 14.3385L7.64873 10.0272C7.59601 9.98437 7.57684 9.9145 7.59921 9.85098C7.62157 9.78746 7.68228 9.74617 7.74938 9.74617H13.9304C13.9816 9.74617 14.0279 9.76999 14.0583 9.80969L16.9882 13.697C17.0218 13.743 17.0298 13.8034 17.0074 13.8558C16.985 13.9082 16.9355 13.9447 16.878 13.951L13.0518 14.375H13.0342ZM8.1967 10.0638L13.0837 14.0511L16.5649 13.6652L13.8506 10.0638H8.1967ZM15.9035 8.13759H12.6763C12.5885 8.13759 12.5166 8.06614 12.5166 7.9788C12.5166 7.89146 12.5885 7.82001 12.6763 7.82001H15.9035C15.9913 7.82001 16.0632 7.89146 16.0632 7.9788C16.0632 8.06614 15.9913 8.13759 15.9035 8.13759Z" fill="black"/>
<path d="M13.0272 14.375C13.0169 14.375 13.0066 14.3734 12.9977 14.3718C12.9183 14.3544 12.8668 14.2702 12.883 14.1845L14.0836 7.94704C14.0998 7.86132 14.1778 7.80575 14.2573 7.82322C14.3367 7.84068 14.3882 7.92482 14.372 8.01055L13.1714 14.248C13.1567 14.3242 13.0963 14.375 13.0272 14.375Z" fill="black"/>
</svg>
